<svg width="144" height="23" viewBox="0 0 144 23" fill="none" xmlns="http://www.w3.org/2000/svg">
<path d="M12 4.04794L13.8723 8.74084L14.2218 9.61684L15.1627 9.68148L20.1977 10.0274L16.3174 13.297L15.6023 13.8995L15.8284 14.8068L17.0564 19.7338L12.8014 17.0443L12 16.5377L11.1986 17.0443L6.94362 19.7338L8.17158 14.8068L8.39771 13.8995L7.68264 13.297L3.80228 10.0274L8.83731 9.68148L9.77823 9.61684L10.1277 8.74084L12 4.04794Z" fill="#FFC512" stroke="#FFC512" stroke-width="3"/>
<path d="M42 4.04794L43.8723 8.74084L44.2218 9.61684L45.1627 9.68148L50.1977 10.0274L46.3174 13.297L45.6023 13.8995L45.8284 14.8068L47.0564 19.7338L42.8014 17.0443L42 16.5377L41.1986 17.0443L36.9436 19.7338L38.1716 14.8068L38.3977 13.8995L37.6826 13.297L33.8023 10.0274L38.8373 9.68148L39.7782 9.61684L40.1277 8.74084L42 4.04794Z" fill="#FFC512" stroke="#FFC512" stroke-width="3"/>
<path d="M72 4.04794L73.8723 8.74084L74.2218 9.61684L75.1627 9.68148L80.1977 10.0274L76.3174 13.297L75.6023 13.8995L75.8284 14.8068L77.0564 19.7338L72.8014 17.0443L72 16.5377L71.1986 17.0443L66.9436 19.7338L68.1716 14.8068L68.3977 13.8995L67.6826 13.297L63.8023 10.0274L68.8373 9.68148L69.7782 9.61684L70.1277 8.74084L72 4.04794Z" fill="#FFC512" stroke="#FFC512" stroke-width="3"/>
<path d="M102 4.04794L103.872 8.74084L104.222 9.61684L105.163 9.68148L110.198 10.0274L106.317 13.297L105.602 13.8995L105.828 14.8068L107.056 19.7338L102.801 17.0443L102 16.5377L101.199 17.0443L96.9436 19.7338L98.1716 14.8068L98.3977 13.8995L97.6826 13.297L93.8023 10.0274L98.8373 9.68148L99.7782 9.61684L100.128 8.74084L102 4.04794Z" fill="#FFC512" stroke="#FFC512" stroke-width="3"/>
<path d="M132 4.04794L133.872 8.74084L134.222 9.61684L135.163 9.68148L140.198 10.0274L136.317 13.297L135.602 13.8995L135.828 14.8068L137.056 19.7338L132.801 17.0443L132 16.5377L131.199 17.0443L126.944 19.7338L128.172 14.8068L128.398 13.8995L127.683 13.297L123.802 10.0274L128.837 9.68148L129.778 9.61684L130.128 8.74084L132 4.04794Z" fill="#FFC512" stroke="#FFC512" stroke-width="3"/>
</svg>
