<svg width="392" height="31" viewBox="0 0 392 31" fill="none" xmlns="http://www.w3.org/2000/svg">
<path d="M16 4.08593L18.9587 11.5826L19.3061 12.4628L20.2501 12.5284L28.2289 13.0825L22.0726 18.3262L21.3669 18.9272L21.5888 19.8272L23.5337 27.7154L16.8076 23.4178L16 22.9017L15.1924 23.4178L8.46635 27.7154L10.4112 19.8272L10.6331 18.9272L9.92744 18.3262L3.77112 13.0825L11.7499 12.5284L12.6939 12.4628L13.0413 11.5826L16 4.08593Z" fill="#FFC512" stroke="#FFC512" stroke-width="3"/>
<path d="M56 4.08593L58.9587 11.5826L59.3061 12.4628L60.2501 12.5284L68.2289 13.0825L62.0726 18.3262L61.3669 18.9272L61.5888 19.8272L63.5337 27.7154L56.8076 23.4178L56 22.9017L55.1924 23.4178L48.4663 27.7154L50.4112 19.8272L50.6331 18.9272L49.9274 18.3262L43.7711 13.0825L51.7499 12.5284L52.6939 12.4628L53.0413 11.5826L56 4.08593Z" fill="#FFC512" stroke="#FFC512" stroke-width="3"/>
<path d="M96 4.08593L98.9587 11.5826L99.3061 12.4628L100.25 12.5284L108.229 13.0825L102.073 18.3262L101.367 18.9272L101.589 19.8272L103.534 27.7154L96.8076 23.4178L96 22.9017L95.1924 23.4178L88.4663 27.7154L90.4112 19.8272L90.6331 18.9272L89.9274 18.3262L83.7711 13.0825L91.7499 12.5284L92.6939 12.4628L93.0413 11.5826L96 4.08593Z" fill="#FFC512" stroke="#FFC512" stroke-width="3"/>
<path d="M136 4.08593L138.959 11.5826L139.306 12.4628L140.25 12.5284L148.229 13.0825L142.073 18.3262L141.367 18.9272L141.589 19.8272L143.534 27.7154L136.808 23.4178L136 22.9017L135.192 23.4178L128.466 27.7154L130.411 19.8272L130.633 18.9272L129.927 18.3262L123.771 13.0825L131.75 12.5284L132.694 12.4628L133.041 11.5826L136 4.08593Z" fill="#FFC512" stroke="#FFC512" stroke-width="3"/>
<path d="M176 4.08593L178.959 11.5826L179.306 12.4628L180.25 12.5284L188.229 13.0825L182.073 18.3262L181.367 18.9272L181.589 19.8272L183.534 27.7154L176.808 23.4178L176 22.9017L175.192 23.4178L168.466 27.7154L170.411 19.8272L170.633 18.9272L169.927 18.3262L163.771 13.0825L171.75 12.5284L172.694 12.4628L173.041 11.5826L176 4.08593Z" fill="#FFC512" stroke="#FFC512" stroke-width="3"/>
<path d="M216 4.08593L218.959 11.5826L219.306 12.4628L220.25 12.5284L228.229 13.0825L222.073 18.3262L221.367 18.9272L221.589 19.8272L223.534 27.7154L216.808 23.4178L216 22.9017L215.192 23.4178L208.466 27.7154L210.411 19.8272L210.633 18.9272L209.927 18.3262L203.771 13.0825L211.75 12.5284L212.694 12.4628L213.041 11.5826L216 4.08593Z" fill="#FFC512" stroke="#FFC512" stroke-width="3"/>
<path d="M256 4.08593L258.959 11.5826L259.306 12.4628L260.25 12.5284L268.229 13.0825L262.073 18.3262L261.367 18.9272L261.589 19.8272L263.534 27.7154L256.808 23.4178L256 22.9017L255.192 23.4178L248.466 27.7154L250.411 19.8272L250.633 18.9272L249.927 18.3262L243.771 13.0825L251.75 12.5284L252.694 12.4628L253.041 11.5826L256 4.08593Z" fill="#FFC512" stroke="#FFC512" stroke-width="3"/>
<path d="M296 4.08593L298.959 11.5826L299.306 12.4628L300.25 12.5284L308.229 13.0825L302.073 18.3262L301.367 18.9272L301.589 19.8272L303.534 27.7154L296.808 23.4178L296 22.9017L295.192 23.4178L288.466 27.7154L290.411 19.8272L290.633 18.9272L289.927 18.3262L283.771 13.0825L291.75 12.5284L292.694 12.4628L293.041 11.5826L296 4.08593Z" fill="#FFC512" stroke="#FFC512" stroke-width="3"/>
<path d="M336 4.08593L338.959 11.5826L339.306 12.4628L340.25 12.5284L348.229 13.0825L342.073 18.3262L341.367 18.9272L341.589 19.8272L343.534 27.7154L336.808 23.4178L336 22.9017L335.192 23.4178L328.466 27.7154L330.411 19.8272L330.633 18.9272L329.927 18.3262L323.771 13.0825L331.75 12.5284L332.694 12.4628L333.041 11.5826L336 4.08593Z" fill="#C3D5CF" stroke="#C3D5CF" stroke-width="3"/>
<path d="M376 4.08593L378.959 11.5826L379.306 12.4628L380.25 12.5284L388.229 13.0825L382.073 18.3262L381.367 18.9272L381.589 19.8272L383.534 27.7154L376.808 23.4178L376 22.9017L375.192 23.4178L368.466 27.7154L370.411 19.8272L370.633 18.9272L369.927 18.3262L363.771 13.0825L371.75 12.5284L372.694 12.4628L373.041 11.5826L376 4.08593Z" fill="#C3D5CF" stroke="#C3D5CF" stroke-width="3"/>
</svg>
