<svg width="24" height="24" viewBox="0 0 24 24" fill="none" xmlns="http://www.w3.org/2000/svg">
<path d="M6.32899 16.8838C6.32899 17.4322 6.77676 17.8799 7.32769 17.8799H8.46939V20.7016C8.46939 21.4164 9.04376 22 9.74941 22C10.4574 22 11.0294 21.4188 11.0294 20.7016V17.8775H13.0221V20.6993C13.0221 21.4141 13.5965 21.9977 14.3022 21.9977C15.0102 21.9977 15.5822 21.4164 15.5822 20.6993V17.8775H16.7239C17.2748 17.8775 17.7226 17.4299 17.7226 16.8815V7.61939H6.32899V16.8838ZM14.7007 2.8196L15.7533 1.29623C15.8143 1.20718 15.8002 1.08765 15.7182 1.02906C15.6361 0.972811 15.5189 1.00093 15.4579 1.08999L14.3655 2.6743C13.6457 2.39072 12.844 2.23369 12.0023 2.23369C11.1607 2.23369 10.3589 2.39072 9.63923 2.6743L8.54675 1.09234C8.4858 1.00328 8.36858 0.972811 8.28653 1.0314C8.20448 1.08765 8.19041 1.20483 8.25137 1.29858L9.30398 2.82195C7.63011 3.60004 6.45793 5.07419 6.30789 6.79677H17.7015C17.5468 5.07185 16.3722 3.59769 14.7007 2.8196ZM9.59703 5.22184C9.4723 5.22184 9.35037 5.18487 9.24667 5.11559C9.14296 5.04632 9.06213 4.94786 9.0144 4.83266C8.96667 4.71746 8.95418 4.5907 8.97851 4.46841C9.00285 4.34611 9.06291 4.23378 9.1511 4.14561C9.2393 4.05744 9.35167 3.9974 9.474 3.97307C9.59633 3.94875 9.72313 3.96123 9.83836 4.00895C9.95359 4.05666 10.0521 4.13747 10.1214 4.24115C10.1907 4.34482 10.2277 4.46671 10.2277 4.5914C10.2272 4.75847 10.1606 4.91857 10.0425 5.03671C9.9243 5.15485 9.76415 5.22141 9.59703 5.22184ZM14.4827 5.22184C14.3579 5.22184 14.236 5.18487 14.1323 5.11559C14.0286 5.04632 13.9478 4.94786 13.9 4.83266C13.8523 4.71746 13.8398 4.5907 13.8642 4.46841C13.8885 4.34611 13.9486 4.23378 14.0367 4.14561C14.1249 4.05744 14.2373 3.9974 14.3596 3.97307C14.482 3.94875 14.6088 3.96123 14.724 4.00895C14.8392 4.05666 14.9377 4.13747 15.007 4.24115C15.0763 4.34482 15.1133 4.46671 15.1133 4.5914C15.1129 4.75847 15.0463 4.91857 14.9281 5.03671C14.8099 5.15485 14.6498 5.22141 14.4827 5.22184ZM19.72 7.58189C19.012 7.58189 18.44 8.16312 18.44 8.88027V13.9519C18.44 14.6667 19.0143 15.2503 19.72 15.2503C20.428 15.2503 21 14.6691 21 13.9519V8.87793C21.0023 8.16077 20.4303 7.58189 19.72 7.58189ZM4.28002 7.58189C3.57202 7.58189 3 8.16312 3 8.88027V13.9519C3 14.6667 3.57437 15.2503 4.28002 15.2503C4.98802 15.2503 5.56004 14.6691 5.56004 13.9519V8.87793C5.56004 8.16077 4.98567 7.58189 4.28002 7.58189Z" fill="white"/>
</svg>
