<svg width="24" height="24" viewBox="0 0 24 24" fill="none" xmlns="http://www.w3.org/2000/svg">
<path d="M17.3768 12.5693C17.3677 10.9299 18.075 9.69441 19.5033 8.78339C18.7044 7.58151 17.4959 6.92048 15.9027 6.79308C14.3943 6.66809 12.7439 7.71612 12.1396 7.71612C11.501 7.71612 10.0406 6.83635 8.89156 6.83635C6.52017 6.87481 4 8.82185 4 12.7832C4 13.9539 4.20372 15.163 4.61116 16.4081C5.15594 18.0475 7.11989 22.0641 9.16853 21.9992C10.2398 21.9728 10.9974 21.2012 12.3914 21.2012C13.7442 21.2012 14.4446 21.9992 15.6395 21.9992C17.7064 21.968 19.4827 18.3167 20 16.6725C17.228 15.3 17.3768 12.6534 17.3768 12.5693ZM14.9711 5.23785C16.1316 3.7908 16.0263 2.47354 15.992 2C14.9665 2.0625 13.7808 2.73314 13.1056 3.55763C12.3617 4.44221 11.9245 5.53592 12.0183 6.76905C13.1262 6.85798 14.1379 6.25945 14.9711 5.23785Z" fill="white"/>
</svg>
